<svg xmlns="http://www.w3.org/2000/svg" width="24" height="24" viewBox="0 0 24 24" fill="currentColor">
  <path d="M16.365 12.873c.03 3.138 2.773 4.183 2.807 4.198-.023.074-.438 1.493-1.446 2.957-.87 1.257-1.777 2.51-3.2 2.533-1.4.023-1.85-.818-3.45-.818-1.6 0-2.1.793-3.425.84-1.374.05-2.417-1.357-3.29-2.61-1.792-2.607-3.16-7.367-1.322-10.583.91-1.575 2.536-2.575 4.304-2.6 1.345-.028 2.614.9 3.45.9.835 0 2.373-1.113 4.007-.95.683.028 2.601.276 3.831 2.078-.099.062-2.287 1.337-2.266 4.055z"/>
  <path d="M13.676 4.28c.722-.875 1.205-2.096 1.07-3.3-1.036.041-2.3.69-3.051 1.563-.671.772-1.257 2.01-1.1 3.198 1.164.09 2.359-.587 3.081-1.46z"/>
</svg>
